<svg width="100" height="100" viewBox="0 0 100 100" fill="none" xmlns="http://www.w3.org/2000/svg">
  <path d="M15 25L85 10L90 20L20 35L15 25Z" fill="#E11D48"/>
  
  <rect x="10" y="35" width="80" height="55" rx="8" fill="#1A1A1A"/>
  
  <path d="M50 80C58 80 65 74 65 65C65 58 61 53 57 48C57 55 52 57 50 52C48 57 43 55 43 48C39 53 35 58 35 65C35 74 42 80 50 80Z" fill="#F43F5E"/>
  
  <path d="M25 23L32 21L35 28L28 30L25 23Z" fill="white" fill-opacity="0.2"/>
  <path d="M50 18L57 16L60 23L53 25L50 18Z" fill="white" fill-opacity="0.2"/>
</svg>
